<svg xmlns="http://www.w3.org/2000/svg" width="255" height="36" viewBox="0 0 255 36">
    <path fill="#000" fill-rule="nonzero" d="M31.636.193a.6.6 0 0 1 .847-.033l2.64 2.444a.6.6 0 0 1 .034.848l-1.223 1.32.88.819.073.08a.6.6 0 0 1-.039.768l-2.445 2.64H32.4v15.999l2.563-2.694a.6.6 0 1 1 1.037.414v12.6a.6.6 0 0 1-.6.6h-12a.6.6 0 0 1-.435-1.013v-.001l3.606-3.787H15.577c-.045.33-.182.64-.394.895l-3.07 3.69a.6.6 0 0 1-.846.077L8.5 33.555a.6.6 0 0 1-.077-.845l1.26-1.513H.6a.6.6 0 0 1-.6-.6V4.8a3.003 3.003 0 0 1 3-3h.6a3.003 3.003 0 0 1 3 3h20.77zM34.8 24.298l-10 10.5h10v-10.5zm-23.535 6.874L9.73 33.017l1.845 1.535 1.535-1.844-1.844-1.536zM33 28.198a.6.6 0 0 1 .6.6v4.2a.6.6 0 0 1-.6.6h-4.2a.6.6 0 0 1-.424-1.025l4.2-4.2a.6.6 0 0 1 .424-.175zm-.6 2.048l-2.152 2.151H32.4v-2.151zm-19.228-.596a.6.6 0 0 0-.756.139l-.383.461 1.844 1.535.384-.46v-.002l.062-.09a.6.6 0 0 0-.14-.755l-.921-.766zM3.6 28.197H3a1.8 1.8 0 0 0-1.8 1.8h4.2a1.8 1.8 0 0 0-1.8-1.8zM26.26 6H6.6v23.998h4.08l.814-.976a1.8 1.8 0 0 1 2.535-.231l.922.767c.148.126.274.274.374.44h12.39l3.485-3.66V7.728l-4.6 4.97a.593.593 0 0 1-.226.149c-.015.005-.029.014-.044.019l-3.36.979a.6.6 0 0 1-.756-.699l.717-3.424c.004-.02.013-.038.019-.055a.583.583 0 0 1 .126-.226l3.184-3.441zm-22.66-3H3a1.8 1.8 0 0 0-1.8 1.8v22.814a2.969 2.969 0 0 1 1.8-.615h.6a2.97 2.97 0 0 1 1.8.615V4.8a1.8 1.8 0 0 0-1.8-1.8zm15 22.199v1.2h-1.2v-1.2h1.2zm-1.025-13.025a.6.6 0 0 1 .849 0l3.6 3.6a.607.607 0 0 1 .176.425v6.6h4.2a.6.6 0 1 1 0 1.2H9.6a.6.6 0 1 1 0-1.2h4.2v-6.6c0-.159.063-.312.175-.425zM21 16.798h-6v6h6v-6zm-3-3.352l-2.152 2.152h4.304L18 13.446zm5.888-2.44l-.295 1.408 1.38-.403-1.085-1.005zm6.588-7.798l-6.112 6.606 1.762 1.63L31.2 5.96v-.008h.007l1.032-1.114-1.763-1.63zM18.6 9.598v1.2h-1.2v-1.2h1.2zm14.52-3.947l-.72.78v.882l1.16-1.255-.44-.407zm-1.013-4.204l-.816.88 1.762 1.631.815-.882-1.761-1.63z"/>
</svg>
