<svg xmlns="http://www.w3.org/2000/svg" width="1060" height="807" viewBox="0 0 1060 807">
    <path fill="#E7ECFF" fill-rule="nonzero" d="M1057.38 603.67c-7.137 44.858-32.235 85.816-67.172 114.79a1228.743 1228.743 0 0 1-7.326 5.706s-.134 0-.19.115a184.072 184.072 0 0 1-82.757 35.308c-55.183 8.237-110.919-8.37-166.673-11.262-99.92-5.213-196.206 33.348-294.641 51.002-98.436 17.654-214.36 7.61-276.679-70.502a15.79 15.79 0 0 1-1.046-1.35c-19.752-25.283-32.254-55.36-47.82-83.514a357.593 357.593 0 0 0-8.353-14.458c-27.687-44.84-68.37-81.574-89.436-129.8a185.74 185.74 0 0 1 1.998-152.037c19.942-42.194 55.013-75.048 89.207-106.78 2.227-2.035 4.377-4.07 6.584-6.106 29.368-27.242 58.761-54.51 88.18-81.802 16.174-14.934 32.348-30 49.15-44.287 22.284-18.986 45.404-36.868 70.674-51.65 61.463-36.297 119.881-32.169 186.672-43.488 77.143-13.107 156.15-24.54 231.219 5.175 43.766 17.273 81.386 46.855 118.302 75.961 5.975 4.737 11.95 9.398 17.906 14.135 33.776 26.633 67.438 53.266 100.719 80.527 7.269 5.955 14.595 12.061 21.407 18.567 10.6 10.102 20 21.23 26.032 34.452 7.269 15.809 9.115 33.463 10.884 50.736 2.474 24.313 4.935 48.568 7.383 72.766 1.485 14.401 2.893 28.802 4.377 43.127 3.336 32.657 6.66 65.276 9.971 97.858 3.216 32.226 6.489 64.832 1.427 96.811z"/>
</svg>
